<?xml version="1.0" encoding="utf-8"?>
<!-- Generator: Adobe Illustrator 19.2.1, SVG Export Plug-In . SVG Version: 6.00 Build 0)  -->
<svg version="1.1" xmlns="http://www.w3.org/2000/svg" xmlns:xlink="http://www.w3.org/1999/xlink" x="0px" y="0px"
	 viewBox="0 0 724 738" style="enable-background:new 0 0 724 738;" xml:space="preserve">
<style type="text/css">
	.st0{display:none;}
	.st1{display:inline;fill:#CA6FB4;}
	.st2{display:inline;fill:#777EAB;}
	.st3{font-family:'FontAwesome';}
	.st4{font-size:625.6731px;}
	.st5{display:inline;fill:#EAC5E1;}
</style>
<g id="Layer_4" class="st0">
	<circle class="st1" cx="491.6" cy="535.4" r="200.6"/>
</g>
<g id="Layer_8" class="st0">
	<text transform="matrix(1 0 0 1 77.3857 570.3672)" class="st2 st3 st4"></text>
</g>
<g id="Layer_6" class="st0">
	<circle class="st5" cx="491.6" cy="535.4" r="260.9"/>
</g>
<g id="Layer_5">
</g>
<g id="Layer_7">
</g>
<g id="Layer_3">
	<path d="M627.3,205.9c1.6-5.1,2.2-11.8,1.7-19.9c8.8,3.5,15.7,8.5,20.6,15c9.3,13.3,11.4,28.3,6.3,45l-21.6,71
		c-11.1-7.3-22.8-13.7-35-19.3L627.3,205.9z M243.2,615.1h-75c-17.9,0-35.2-6.2-51.8-18.7c-16.6-12.5-28.2-27.8-34.7-45.9
		c-5.6-15.6-5.8-30.4-0.7-44.3c0-0.9,0.3-4.1,1-9.4c0.7-5.4,1.2-9.7,1.4-12.9c0.2-1.9-0.1-4.4-1-7.5c-0.9-3.1-1.3-5.4-1-6.8
		c0.5-2.6,1.4-5,2.8-7.3c1.4-2.3,3.3-5.1,5.8-8.2c2.4-3.1,4.4-5.9,5.8-8.2c5.4-8.8,10.6-19.5,15.7-31.9c5.1-12.4,8.6-23.1,10.5-31.9
		c0.7-2.3,0.8-5.8,0.2-10.5c-0.6-4.7-0.6-7.9-0.2-9.8c0.7-2.6,2.7-5.8,5.9-9.8c3.3-4,5.2-6.6,5.9-8c4.9-8.4,9.8-19.1,14.7-32.1
		c4.9-13,7.8-23.5,8.7-31.4c0.2-2.1-0.1-5.8-0.9-11.2c-0.8-5.4-0.8-8.6,0.2-9.8c0.9-3,3.5-6.6,7.7-10.6c4.2-4.1,6.7-6.7,7.7-7.9
		c4.4-6,9.4-15.9,14.8-29.5c5.5-13.6,8.7-24.8,9.6-33.7c0.2-1.9-0.1-4.8-1-8.9c-0.9-4.1-1.2-7.2-0.7-9.3c0.5-1.9,1.5-4,3.1-6.3
		c1.6-2.3,3.7-5,6.3-8c2.6-3,4.5-5.5,5.9-7.3c1.9-2.8,3.8-6.3,5.8-10.6c2-4.3,3.7-8.4,5.2-12.2c1.5-3.8,3.4-8,5.6-12.6
		c2.2-4.5,4.5-8.3,6.8-11.2c2.3-2.9,5.4-5.6,9.3-8.2c3.8-2.6,8-3.9,12.6-4c4.5-0.1,10.1,0.5,16.6,1.9l-0.3,1
		c8.8-2.1,14.8-3.1,17.8-3.1h265.7c17.2,0,30.5,6.5,39.8,19.6c9.3,13,11.4,28.2,6.3,45.4l-42.2,139.5c-21.4-5.7-43.8-8.7-67-8.7
		c-0.8,0-1.6,0-2.4,0l1.9-5.8c0.9-3,0.7-5.6-0.7-7.9c-1.4-2.2-3.7-3.3-7-3.3H271.2c-3,0-6,1.1-8.9,3.3c-2.9,2.2-4.8,4.8-5.8,7.9
		l-7.3,22.3c-0.9,3-0.7,5.6,0.7,7.9c1.4,2.2,3.7,3.3,7,3.3h117.7c-82.5,41.5-140,125.6-143.6,223.5h-99.1c-6.3,0-10.7,1.7-13.3,5.2
		c-2.6,3.7-2.7,8.7-0.3,15c5.6,16.3,22.3,24.4,50.3,24.4h64.6C235.2,585.7,238.5,600.7,243.2,615.1z M278.8,209.5
		c1.4,2.2,3.7,3.3,7,3.3h212.3c3,0,6-1.1,8.9-3.3c2.9-2.2,4.8-4.8,5.8-7.9l7.3-22.3c0.9-3,0.7-5.6-0.7-7.9c-1.4-2.2-3.7-3.3-7-3.3
		H300.1c-3,0-6,1.1-8.9,3.3c-2.9,2.2-4.8,4.8-5.8,7.9l-7.3,22.3C277.2,204.7,277.4,207.3,278.8,209.5z M692.3,535.4
		c0,110.8-89.8,200.6-200.6,200.6S291,646.2,291,535.4s89.8-200.6,200.6-200.6S692.3,424.6,692.3,535.4z M645.4,491.8
		c3.8-3.8,5.8-8.5,5.8-14c0-5.5-1.9-10.2-5.8-14l-28.1-28.1c-3.9-3.8-8.5-5.8-14-5.8c-5.5,0-10.2,1.9-14,5.8L453.9,571.2l-60.7-60.9
		c-3.9-3.8-8.5-5.8-14-5.8c-5.5,0-10.2,1.9-14,5.8l-28.1,28.1c-3.9,3.9-5.8,8.5-5.8,14c0,5.5,1.9,10.2,5.8,14l74.7,74.7l28.1,28.1
		c3.8,3.9,8.5,5.8,14,5.8c5.5,0,10.2-1.9,14-5.8l28.1-28.1L645.4,491.8z"/>
</g>
</svg>
