<?xml version="1.0" encoding="utf-8"?>
<!-- Generator: Adobe Illustrator 19.2.1, SVG Export Plug-In . SVG Version: 6.00 Build 0)  -->
<svg version="1.1" xmlns="http://www.w3.org/2000/svg" xmlns:xlink="http://www.w3.org/1999/xlink" x="0px" y="0px"
	 viewBox="0 0 724 738" style="enable-background:new 0 0 724 738;" xml:space="preserve">
<style type="text/css">
	.st0{display:none;}
	.st1{display:inline;fill:#CA6FB4;}
	.st2{display:inline;fill:#EAC5E1;}
</style>
<g id="Layer_4" class="st0">
	<circle class="st1" cx="491.6" cy="535.4" r="200.6"/>
</g>
<g id="Layer_7" class="st0">
	<circle class="st2" cx="491.6" cy="535.4" r="260.9"/>
</g>
<g id="Layer_3">
	<path d="M538.4,278.7c5.2-2.6,10.9-3.9,17.1-3.9H684c10.7,0,19.8,3.7,27.3,11.2c7.5,7.5,11.2,16.6,11.2,27.3v77
		c0,6.1-1.2,11.7-3.7,16.7C681.4,340.9,615.9,292.7,538.4,278.7z M444.4,278.8c-5.2-2.6-11-3.9-17.3-3.9H298.7
		c-10.7,0-19.8,3.7-27.3,11.2c-7.5,7.5-11.2,16.6-11.2,27.3v77c0,6.3,1.3,12,3.9,17.2C301.5,341.3,367,292.9,444.4,278.8z
		 M170.3,69.4H41.9c-10.7,0-19.8,3.7-27.3,11.2C7.1,88.1,3.4,97.2,3.4,107.9v77c0,10.7,3.7,19.8,11.2,27.3
		c7.5,7.5,16.6,11.2,27.3,11.2h128.4c10.7,0,19.8-3.7,27.3-11.2c7.5-7.5,11.2-16.6,11.2-27.3v-77c0-10.7-3.8-19.8-11.2-27.3
		C190.1,73.1,181,69.4,170.3,69.4z M170.3,480.3H41.9c-10.7,0-19.8,3.7-27.3,11.2C7.1,499,3.4,508.1,3.4,518.8v77
		c0,10.7,3.7,19.8,11.2,27.3c7.5,7.5,16.6,11.2,27.3,11.2h128.4c10.7,0,19.8-3.7,27.3-11.2c7.5-7.5,11.2-16.6,11.2-27.3v-77
		c0-10.7-3.8-19.8-11.2-27.3C190.1,484,181,480.3,170.3,480.3z M170.3,274.8H41.9c-10.7,0-19.8,3.7-27.3,11.2
		c-7.5,7.5-11.2,16.6-11.2,27.3v77c0,10.7,3.7,19.8,11.2,27.3c7.5,7.5,16.6,11.2,27.3,11.2h128.4c10.7,0,19.8-3.7,27.3-11.2
		c7.5-7.5,11.2-16.6,11.2-27.3v-77c0-10.7-3.8-19.8-11.2-27.3C190.1,278.6,181,274.8,170.3,274.8z M427.2,69.4H298.7
		c-10.7,0-19.8,3.7-27.3,11.2c-7.5,7.5-11.2,16.6-11.2,27.3v77c0,10.7,3.7,19.8,11.2,27.3c7.5,7.5,16.6,11.2,27.3,11.2h128.4
		c10.7,0,19.8-3.7,27.3-11.2c7.5-7.5,11.2-16.6,11.2-27.3v-77c0-10.7-3.7-19.8-11.2-27.3C447,73.1,437.9,69.4,427.2,69.4z
		 M711.3,80.6c-7.5-7.5-16.6-11.2-27.3-11.2H555.6c-10.7,0-19.8,3.7-27.3,11.2c-7.5,7.5-11.2,16.6-11.2,27.3v77
		c0,10.7,3.7,19.8,11.2,27.3c7.5,7.5,16.6,11.2,27.3,11.2H684c10.7,0,19.8-3.7,27.3-11.2c7.5-7.5,11.2-16.6,11.2-27.3v-77
		C722.5,97.2,718.8,88.1,711.3,80.6z M692.3,535.4c0,110.8-89.8,200.6-200.6,200.6S291,646.2,291,535.4s89.8-200.6,200.6-200.6
		S692.3,424.6,692.3,535.4z M645.4,491.8c3.8-3.8,5.8-8.5,5.8-14c0-5.5-1.9-10.2-5.8-14l-28.1-28.1c-3.9-3.8-8.5-5.8-14-5.8
		c-5.5,0-10.2,1.9-14,5.8L453.9,571.2l-60.7-60.9c-3.9-3.8-8.5-5.8-14-5.8c-5.5,0-10.2,1.9-14,5.8l-28.1,28.1
		c-3.9,3.9-5.8,8.5-5.8,14c0,5.5,1.9,10.2,5.8,14l74.7,74.7l28.1,28.1c3.8,3.9,8.5,5.8,14,5.8c5.5,0,10.2-1.9,14-5.8l28.1-28.1
		L645.4,491.8z"/>
</g>
</svg>
