<?xml version="1.0" encoding="utf-8"?>
<!-- Generator: Adobe Illustrator 19.2.1, SVG Export Plug-In . SVG Version: 6.00 Build 0)  -->
<svg version="1.1" id="Layer_1" xmlns="http://www.w3.org/2000/svg" xmlns:xlink="http://www.w3.org/1999/xlink" x="0px" y="0px"
	 viewBox="0 0 960 960" style="enable-background:new 0 0 960 960;" xml:space="preserve">
<style type="text/css">
	.st0{fill-rule:evenodd;clip-rule:evenodd;}
</style>
<path class="st0" d="M242.4,40c111.8,0,202.4,90.6,202.4,202.4c0,47.4,0,145.4,0,202.4c-71.6,0-138,0-202.4,0
	C130.6,444.8,40,354.2,40,242.4S130.6,40,242.4,40z M920,242.4c0,111.8-90.6,202.4-202.4,202.4c-64.4,0-130.8,0-202.4,0
	c0-57,0-155,0-202.4C515.2,130.6,605.8,40,717.6,40S920,130.6,920,242.4z M40,717.6c0-111.8,90.6-202.4,202.4-202.4
	c64.4,0,130.8,0,202.4,0c0,57,0,155,0,202.4c0,111.8-90.6,202.4-202.4,202.4S40,829.4,40,717.6z M717.6,920
	c-111.8,0-202.4-90.6-202.4-202.4c0-47.4,0-145.4,0-202.4c71.6,0,138,0,202.4,0c111.8,0,202.4,90.6,202.4,202.4S829.4,920,717.6,920
	z"/>
</svg>
