<?xml version="1.0" encoding="utf-8"?>
<!-- Generator: Adobe Illustrator 19.2.1, SVG Export Plug-In . SVG Version: 6.00 Build 0)  -->
<svg version="1.1" id="Layer_1" xmlns="http://www.w3.org/2000/svg" xmlns:xlink="http://www.w3.org/1999/xlink" x="0px" y="0px"
	 viewBox="0 0 960 960" style="enable-background:new 0 0 960 960;" xml:space="preserve">
<style type="text/css">
	.st0{fill-rule:evenodd;clip-rule:evenodd;}
</style>
<path class="st0" d="M242.4,40c111.8,0,202.4,90.6,202.4,202.4c0,47.4,0,145.4,0,202.4c-71.6,0-138,0-202.4,0
	C130.6,444.8,40,354.2,40,242.4S130.6,40,242.4,40z M717.6,40c-111.8,0-202.4,90.6-202.4,202.4c0,47.4,0,145.4,0,202.4
	c71.6,0,138,0,202.4,0c111.8,0,202.4-90.6,202.4-202.4S829.4,40,717.6,40z M717.6,391.6c-47.5,0-96.5,0-149.2,0
	c0-42,0-114.3,0-149.2c0-82.4,66.8-149.2,149.2-149.2S866.8,160,866.8,242.4S800,391.6,717.6,391.6z M920,717.6
	c0-111.8-90.6-202.4-202.4-202.4c-47.4,0-145.4,0-202.4,0c0,71.6,0,138,0,202.4c0,111.8,90.6,202.4,202.4,202.4S920,829.4,920,717.6
	z M568.4,717.6c0-47.5,0-96.5,0-149.2c42,0,114.3,0,149.2,0c82.4,0,149.2,66.8,149.2,149.2S800,866.8,717.6,866.8
	S568.4,800,568.4,717.6z M242.4,920c111.8,0,202.4-90.6,202.4-202.4c0-47.4,0-145.4,0-202.4c-71.6,0-138,0-202.4,0
	C130.6,515.2,40,605.8,40,717.6S130.6,920,242.4,920z M242.4,568.4c47.5,0,96.5,0,149.2,0c0,42,0,114.3,0,149.2
	c0,82.4-66.8,149.2-149.2,149.2S93.2,800,93.2,717.6S160,568.4,242.4,568.4z"/>
</svg>
